<?xml version="1.0" encoding="utf-8"?>
<!-- Generator: Adobe Illustrator 19.0.0, SVG Export Plug-In . SVG Version: 6.00 Build 0)  -->
<svg version="1.1" id="Capa_1" xmlns="http://www.w3.org/2000/svg" xmlns:xlink="http://www.w3.org/1999/xlink" x="0px" y="0px"
	 viewBox="17 326.9 777 188" style="enable-background:new 17 326.9 777 188;" xml:space="preserve">
<style type="text/css">
	.st0{fill:#F27405;}
</style>
<title>logo</title>
<desc>Created with Sketch.</desc>
<g id="Group">
	<path id="Shape_1_" class="st0" d="M100.4,396.4c4.4,4.3,10.6,6.4,18.3,6.4s13.9-2.2,18.3-6.4c4.6-4.5,6.9-10.8,6.9-18.8
		s-2.4-14.4-6.9-18.8c-4.4-4.3-10.6-6.4-18.3-6.4s-13.9,2.2-18.3,6.4c-4.6,4.5-6.9,10.8-6.9,18.8C93.4,385.7,95.8,392,100.4,396.4z
		 M108.3,367c2.3-2.2,5.7-3.2,10.4-3.2c4.7,0,8.2,1.1,10.4,3.2c2.3,2.2,3.5,5.8,3.5,10.7s-1.2,8.4-3.5,10.7
		c-2.3,2.2-5.7,3.3-10.4,3.3c-4.7,0-8.2-1.1-10.4-3.3c-2.3-2.2-3.5-5.8-3.5-10.7S106,369.2,108.3,367z"/>
	<path id="Shape_2_" class="st0" d="M81.2,422.7c6.6-4.6,10.4-10.2,11.4-16.5c0.9-6.1-0.8-12.4-5.2-18.7
		c-4.5-6.3-9.8-10.1-15.7-11.3c-6.3-1.3-12.8,0.5-19.4,5.1c-6.6,4.6-10.4,10.2-11.4,16.5c-0.9,6.1,0.8,12.4,5.2,18.7
		c4.5,6.3,9.8,10.1,15.7,11.3c1.3,0.3,2.6,0.4,4,0.4C70.9,428.2,76,426.3,81.2,422.7z M55.4,410c-2.7-3.9-3.8-7.3-3.4-10.4
		c0.5-3.2,2.8-6.1,6.7-8.9c3.3-2.3,6.3-3.5,9-3.5c0.6,0,1.2,0.1,1.8,0.2c3,0.6,6,2.9,8.7,6.6c2.7,3.9,3.8,7.3,3.4,10.4
		c-0.5,3.1-2.8,6.1-6.7,8.9c-4,2.8-7.6,3.9-10.7,3.3C61,416,58.1,413.9,55.4,410z"/>
	<path id="Shape_3_" class="st0" d="M196.4,397.9c-1-6.3-4.9-11.9-11.4-16.5c-6.6-4.6-13.1-6.3-19.4-5.1c-6,1.2-11.3,5-15.7,11.3
		c-4.5,6.3-6.2,12.6-5.2,18.7c1,6.3,4.9,11.9,11.4,16.5c5.2,3.6,10.4,5.5,15.4,5.5c1.3,0,2.6-0.2,4-0.4c6-1.2,11.3-5,15.7-11.3
		C195.5,410.2,197.3,403.9,196.4,397.9z M181.9,410c-2.7,3.9-5.6,6.1-8.7,6.6c-3.1,0.6-6.7-0.5-10.7-3.3c-4-2.8-6.2-5.8-6.7-8.9
		c-0.5-3,0.7-6.6,3.4-10.4c2.7-3.9,5.6-6.1,8.7-6.6c0.6-0.1,1.1-0.2,1.8-0.2c2.7,0,5.7,1.2,9,3.5c4,2.8,6.2,5.8,6.7,8.9
		C185.7,402.7,184.6,406.1,181.9,410z"/>
	<path id="Shape_4_" class="st0" d="M166.2,444.8c-4.2-4-9.3-6.7-14.7-7.8c-0.8-8.2-3.8-14.8-8.8-19.6c-5.7-5.6-13.8-8.3-24.1-8.3
		l0,0l0,0c-10.2,0-18.3,2.8-24.1,8.3c-5,4.8-7.9,11.4-8.8,19.6c-5.4,1.1-10.5,3.8-14.7,7.8c-6,5.7-9,14.1-9,24.7
		c0,10.6,3,18.9,9,24.7c5.7,5.6,13.8,8.3,24.1,8.3c5.4,0,10.4-1.3,14.9-2.4c3.3-0.8,6.3-1.6,8.6-1.6l0,0l0,0c2.3,0,5.3,0.8,8.6,1.6
		c4.5,1.1,9.5,2.4,14.9,2.4c10.2,0,18.3-2.8,24.1-8.3c6-5.7,9-14.1,9-24.7C175.2,459,172.2,450.6,166.2,444.8z M158.3,486.1
		c-3.5,3.5-9,5.1-16.2,5.1c-4,0-8.2-1-12.2-2c-4-1-7.7-1.9-11.3-1.9l0,0l0,0c-3.6,0-7.3,0.9-11.3,1.9c-4,1-8.2,2-12.2,2
		c-7.2,0-12.6-1.8-16.2-5.1c-3.7-3.5-5.6-9.1-5.6-16.6c0-7.4,1.9-13,5.6-16.6c2.1-2,4.5-3.5,7-4.3c1.5,12.2,7.1,26.5,18.9,26.5
		c3.8,0,7-1.6,9.1-4.5c1.7-2.3,2.6-5.3,2.6-8.8c0-9.3-6.7-21.7-19.4-24.7c0.7-5,2.4-8.8,5.2-11.5c3.5-3.5,9-5.1,16.2-5.1l0,0l0,0
		c7.2,0,12.6,1.8,16.2,5.1c2.8,2.7,4.5,6.6,5.2,11.5c-12.7,3-19.4,15.5-19.4,24.7c0,3.5,0.9,6.5,2.6,8.8c2.1,2.9,5.4,4.5,9.1,4.5
		c11.9,0,17.5-14.4,18.9-26.5c2.5,0.8,4.9,2.3,7,4.3c3.7,3.5,5.6,9.1,5.6,16.6C163.9,477,162,482.5,158.3,486.1z M97.1,447.9
		c4.4,0,12,14.2,8,16.1C101.6,465.4,97.9,455.9,97.1,447.9z M140.3,447.9c-0.8,8.1-4.5,17.6-8,16.1
		C128.2,462.1,135.9,447.9,140.3,447.9z"/>
</g>
<g>
	<path class="st0" d="M267.6,476.7c-3.7,3.3-8.5,5-14.5,5c-5.4,0-9.4-1.4-12.1-4.3c-2.7-2.9-4.1-7.3-4.1-13.1v-61.7h32.3v-16.2
		h-32.3v-23.3h-18.4V465c0,10.4,2.9,18.6,8.7,24.4c5.8,5.8,14,8.7,24.6,8.7c4.5,0,8.9-0.7,13-2c4.2-1.4,7.8-3.4,10.7-6l1.1-1
		l-6.9-14.1L267.6,476.7z"/>
	<path class="st0" d="M391.6,438.3c-0.3-10.2-2.8-19.4-7.5-27.3c-4.7-8-11.1-14.3-19-18.8c-7.9-4.5-16.9-6.8-26.7-6.8
		c-10.5,0-19.9,2.4-28.2,7.2c-8.3,4.8-14.8,11.5-19.5,20.1c-4.7,8.5-7,18.3-7,29c0,10.7,2.5,20.5,7.4,29
		c4.9,8.5,11.9,15.3,20.7,20.1c8.8,4.8,18.9,7.2,30.2,7.2c8.8,0,16.9-1.6,24.1-4.6c7.3-3.1,13.5-7.6,18.4-13.6l1.1-1.3l-10.8-12.4
		l-1.5,1.8c-3.7,4.3-8.3,7.7-13.6,9.9c-5.3,2.3-11.3,3.4-17.6,3.4c-9.4,0-17.6-2.4-24.3-7.1c-6.1-4.2-10.6-10-13.2-17.2l87.1-16.9
		L391.6,438.3z M319.4,406.7c5.5-3.3,11.9-4.9,19-4.9c9.1,0,16.8,2.7,23,8.1c5.8,5,9.6,11.4,11.3,18.9l-71.1,13.8c0-0.6,0-1.3,0-2.1
		c0-7.6,1.6-14.4,4.7-20.3C309.5,414.5,313.9,409.9,319.4,406.7L319.4,406.7z"/>
	<path class="st0" d="M502.2,392.5L502.2,392.5c-8.4-4.7-17.9-7.1-28.2-7.1c-8.9,0-17.1,1.9-24.4,5.6c-5.5,2.8-10.2,6.6-14.2,11.4
		v-60.1H417V497h17.8v-16.7c3.9,4.9,8.7,8.9,14.2,11.8c7.4,3.9,15.8,5.9,25,5.9c10.3,0,19.8-2.4,28.2-7.2
		c8.4-4.8,15.1-11.5,19.8-20.1c4.7-8.5,7.2-18.3,7.2-29.2c0-10.8-2.4-20.7-7.2-29.2C517.3,403.9,510.6,397.2,502.2,392.5z M473,402
		c7.1,0,13.6,1.7,19.3,4.9c5.7,3.2,10.3,7.9,13.5,13.9c3.3,6,4.9,13,4.9,20.8c0,7.7-1.7,14.7-4.9,20.8c-3.3,6-7.8,10.7-13.5,13.9
		c-5.8,3.3-12.3,4.9-19.3,4.9c-7.2,0-13.7-1.7-19.4-4.9c-5.7-3.2-10.2-7.9-13.4-13.9c-3.3-6-4.9-13-4.9-20.8
		c0-7.7,1.7-14.7,4.9-20.8c3.3-6,7.8-10.7,13.4-13.9C459.3,403.6,465.8,402,473,402z"/>
	<path class="st0" d="M629.1,392.6c-8.5-4.7-18.2-7.2-28.8-7.2c-10.6,0-20.3,2.4-28.8,7.2c-8.5,4.8-15.4,11.5-20.2,20
		c-4.9,8.5-7.4,18.3-7.4,29c0,10.7,2.5,20.5,7.4,29c4.9,8.5,11.7,15.3,20.2,20.1c8.5,4.8,18.2,7.3,28.8,7.3
		c10.6,0,20.3-2.4,28.8-7.3c8.5-4.8,15.3-11.6,20.1-20.1c4.8-8.5,7.3-18.3,7.3-29c0-10.7-2.4-20.5-7.3-29
		C644.4,404.1,637.6,397.3,629.1,392.6z M600.3,481.2c-7.2,0-13.7-1.7-19.4-4.9c-5.7-3.2-10.2-7.9-13.4-13.9c-3.3-6-4.9-13-4.9-20.8
		c0-7.7,1.7-14.7,4.9-20.8c3.3-6,7.8-10.7,13.4-13.9c5.7-3.3,12.2-4.9,19.4-4.9c7.2,0,13.7,1.7,19.4,4.9c5.7,3.2,10.1,7.9,13.3,13.9
		c3.2,6,4.8,13,4.8,20.8c0,7.7-1.6,14.7-4.8,20.8c-3.2,6-7.7,10.7-13.3,13.9C614,479.6,607.5,481.2,600.3,481.2z"/>
	<path class="st0" d="M776.5,412.6c-4.8-8.5-11.6-15.3-20.2-20c-8.5-4.7-18.2-7.2-28.8-7.2c-10.6,0-20.3,2.4-28.8,7.2
		c-8.5,4.8-15.4,11.5-20.2,20c-4.9,8.5-7.4,18.3-7.4,29c0,10.7,2.5,20.5,7.4,29c4.9,8.5,11.7,15.3,20.2,20.1
		c8.5,4.8,18.2,7.3,28.8,7.3c10.6,0,20.3-2.4,28.8-7.3c8.5-4.8,15.3-11.6,20.1-20.1c4.8-8.5,7.3-18.3,7.3-29
		C783.8,430.9,781.3,421.1,776.5,412.6z M727.6,481.2c-7.2,0-13.7-1.7-19.4-4.9c-5.7-3.2-10.2-7.9-13.4-13.9c-3.3-6-4.9-13-4.9-20.8
		c0-7.7,1.7-14.7,4.9-20.8c3.3-6,7.8-10.7,13.4-13.9c5.7-3.3,12.2-4.9,19.4-4.9c7.2,0,13.7,1.7,19.4,4.9c5.7,3.2,10.1,7.9,13.3,13.9
		c3.2,6,4.8,13,4.8,20.8c0,7.7-1.6,14.7-4.8,20.8c-3.2,6-7.7,10.7-13.3,13.9C741.3,479.6,734.7,481.2,727.6,481.2z"/>
</g>
</svg>
